<svg xmlns="http://www.w3.org/2000/svg" width="200" height="200" viewBox="0 0 200 200">
  <circle cx="100" cy="100" r="100" fill="#1B2A6B"/>
  <circle cx="100" cy="100" r="88" fill="none" stroke="#C8346B" stroke-width="4"/>
  <circle cx="100" cy="100" r="78" fill="none" stroke="#ffffff" stroke-width="1.5" stroke-dasharray="4 3"/>
  <!-- Sun rays -->
  <polygon points="100,18 106,40 94,40" fill="#f7d200"/>
  <polygon points="100,182 106,160 94,160" fill="#f7d200"/>
  <polygon points="18,100 40,106 40,94" fill="#f7d200"/>
  <polygon points="182,100 160,106 160,94" fill="#f7d200"/>
  <polygon points="33,33 52,50 44,52" fill="#f7d200" transform="rotate(45 100 100)"/>
  <!-- House icon -->
  <polygon points="100,52 65,78 65,130 135,130 135,78" fill="#ffffff" opacity="0.15"/>
  <polygon points="100,48 60,76 140,76" fill="#C8346B"/>
  <rect x="82" y="90" width="18" height="20" fill="#ffffff" rx="2"/>
  <rect x="102" y="90" width="18" height="20" fill="#ffffff" rx="2"/>
  <rect x="82" y="112" width="36" height="18" fill="#ffffff" rx="2"/>
  <!-- Stars -->
  <circle cx="68" cy="90" r="3" fill="#f7d200" opacity="0.7"/>
  <circle cx="132" cy="90" r="3" fill="#f7d200" opacity="0.7"/>
  <!-- Text arc simulation — just centered text -->
  <text x="100" y="160" text-anchor="middle" font-family="Arial, sans-serif" font-size="9" font-weight="bold" fill="#ffffff" letter-spacing="2">BUCK ESTATE</text>
  <text x="100" y="172" text-anchor="middle" font-family="Arial, sans-serif" font-size="7.5" fill="#C8346B" letter-spacing="1.5">ALFONSO · CAVITE</text>
</svg>
